HIERARCHY
ROOT hip
{
  OFFSET 0 0 0
  CHANNELS 6 Xposition Yposition Zposition Zrotation Yrotation Xrotation
  JOINT abdomen
  {
    OFFSET 0 20.6881 -0.73152
    CHANNELS 3 Zrotation Xrotation Yrotation
    JOINT chest
    {
      OFFSET 0 11.7043 -0.48768
      CHANNELS 3 Zrotation Xrotation Yrotation
      JOINT neck
      {
        OFFSET 0 22.1894 -2.19456
        CHANNELS 3 Zrotation Xrotation Yrotation
        JOINT head
        {
          OFFSET -0.24384 7.07133 1.2192
          CHANNELS 3 Zrotation Xrotation Yrotation
          JOINT leftEye
          {
            OFFSET 4.14528 8.04674 8.04672
            CHANNELS 3 Zrotation Xrotation Yrotation
            End Site
            {
              OFFSET 1 0 0
            }
          }
          JOINT rightEye
          {
            OFFSET -3.6576 8.04674 8.04672
            CHANNELS 3 Zrotation Xrotation Yrotation
            End Site
            {
              OFFSET 1 0 0
            }
          }
        }
      }
      JOINT rCollar
      {
        OFFSET -2.68224 19.2634 -4.8768
        CHANNELS 3 Zrotation Xrotation Yrotation
        JOINT rShldr
        {
          OFFSET -8.77824 -1.95073 1.46304
          CHANNELS 3 Zrotation Xrotation Yrotation
          JOINT rForeArm
          {
            OFFSET -28.1742 -1.7115 0.48768
            CHANNELS 3 Zrotation Xrotation Yrotation
            JOINT rHand
            {
              OFFSET -22.5879 0.773209 7.07136
              CHANNELS 3 Zrotation Xrotation Yrotation
              JOINT rThumb1
              {
                OFFSET -1.2192 -0.487915 3.41376
                CHANNELS 3 Zrotation Xrotation Yrotation
                JOINT rThumb2
                {
                  OFFSET -3.37035 -0.52449 3.41376
                  CHANNELS 3 Zrotation Xrotation Yrotation
                  End Site
                  {
                    OFFSET -1.78271 -1.18214 1.43049
                  }
                }
              }
              JOINT rIndex1
              {
                OFFSET -7.75947 0.938293 5.60832
                CHANNELS 3 Zrotation Xrotation Yrotation
                JOINT rIndex2
                {
                  OFFSET -2.54057 -0.884171 1.56538
                  CHANNELS 3 Zrotation Xrotation Yrotation
                  End Site
                  {
                    OFFSET -1.62519 -0.234802 1.16502
                  }
                }
              }
              JOINT rMid1
              {
                OFFSET -8.24714 1.18213 3.41376
                CHANNELS 3 Zrotation Xrotation Yrotation
                JOINT rMid2
                {
                  OFFSET -3.10165 -0.590103 1.0647
                  CHANNELS 3 Zrotation Xrotation Yrotation
                  End Site
                  {
                    OFFSET -2.48547 -0.328903 0.83742
                  }
                }
              }
              JOINT rRing1
              {
                OFFSET -8.82822 0.546677 1.51678
                CHANNELS 3 Zrotation Xrotation Yrotation
                JOINT rRing2
                {
                  OFFSET -2.60934 -0.819778 -0.0198488
                  CHANNELS 3 Zrotation Xrotation Yrotation
                  End Site
                  {
                    OFFSET -2.33842 -0.294052 0.168128
                  }
                }
              }
              JOINT rPinky1
              {
                OFFSET -8.27202 -0.0477905 -0.4584
                CHANNELS 3 Zrotation Xrotation Yrotation
                JOINT rPinky2
                {
                  OFFSET -1.82734 -0.647385 -0.700984
                  CHANNELS 3 Zrotation Xrotation Yrotation
                  End Site
                  {
                    OFFSET -1.69225 -0.51767 -0.607171
                  }
                }
              }
            }
          }
        }
      }
      JOINT lCollar
      {
        OFFSET 2.68224 19.2634 -4.8768
        CHANNELS 3 Zrotation Xrotation Yrotation
        JOINT lShldr
        {
          OFFSET 8.77824 -1.95073 1.46304
          CHANNELS 3 Zrotation Xrotation Yrotation
          JOINT lForeArm
          {
            OFFSET 28.1742 -1.7115 0.48768
            CHANNELS 3 Zrotation Xrotation Yrotation
            JOINT lHand
            {
              OFFSET 22.5879 0.773209 7.07136
              CHANNELS 3 Zrotation Xrotation Yrotation
              JOINT lThumb1
              {
                OFFSET 1.2192 -0.487915 3.41376
                CHANNELS 3 Zrotation Xrotation Yrotation
                JOINT lThumb2
                {
                  OFFSET 3.37035 -0.52449 3.41376
                  CHANNELS 3 Zrotation Xrotation Yrotation
                  End Site
                  {
                    OFFSET 1.78271 -1.18214 1.43049
                  }
                }
              }
              JOINT lIndex1
              {
                OFFSET 7.75947 0.938293 5.60832
                CHANNELS 3 Zrotation Xrotation Yrotation
                JOINT lIndex2
                {
                  OFFSET 2.54057 -0.884171 1.56538
                  CHANNELS 3 Zrotation Xrotation Yrotation
                  End Site
                  {
                    OFFSET 1.62519 -0.234802 1.16502
                  }
                }
              }
              JOINT lMid1
              {
                OFFSET 8.24714 1.18213 3.41376
                CHANNELS 3 Zrotation Xrotation Yrotation
                JOINT lMid2
                {
                  OFFSET 3.10165 -0.590103 1.0647
                  CHANNELS 3 Zrotation Xrotation Yrotation
                  End Site
                  {
                    OFFSET 2.48547 -0.328903 0.83742
                  }
                }
              }
              JOINT lRing1
              {
                OFFSET 8.82822 0.546677 1.51678
                CHANNELS 3 Zrotation Xrotation Yrotation
                JOINT lRing2
                {
                  OFFSET 2.60934 -0.819778 -0.0198488
                  CHANNELS 3 Zrotation Xrotation Yrotation
                  End Site
                  {
                    OFFSET 2.33842 -0.294052 0.168128
                  }
                }
              }
              JOINT lPinky1
              {
                OFFSET 8.27202 -0.0477905 -0.4584
                CHANNELS 3 Zrotation Xrotation Yrotation
                JOINT lPinky2
                {
                  OFFSET 1.82734 -0.647385 -0.700984
                  CHANNELS 3 Zrotation Xrotation Yrotation
                  End Site
                  {
                    OFFSET 1.69225 -0.51767 -0.607171
                  }
                }
              }
            }
          }
        }
      }
    }
  }
  JOINT rButtock
  {
    OFFSET -8.77824 4.35084 1.2192
    CHANNELS 3 Zrotation Xrotation Yrotation
    JOINT rThigh
    {
      OFFSET 0 -1.70687 -2.19456
      CHANNELS 3 Zrotation Xrotation Yrotation
      JOINT rShin
      {
        OFFSET 0 -36.8199 0.73152
        CHANNELS 3 Zrotation Xrotation Yrotation
        JOINT rFoot
        {
          OFFSET 0.73152 -45.1104 -5.12064
          CHANNELS 3 Zrotation Xrotation Yrotation
          End Site
          {
            OFFSET -1.1221 -3.69964 12.103
          }
        }
      }
    }
  }
  JOINT lButtock
  {
    OFFSET 8.77824 4.35084 1.2192
    CHANNELS 3 Zrotation Xrotation Yrotation
    JOINT lThigh
    {
      OFFSET 0 -1.70687 -2.19456
      CHANNELS 3 Zrotation Xrotation Yrotation
      JOINT lShin
      {
        OFFSET 0 -36.8199 0.73152
        CHANNELS 3 Zrotation Xrotation Yrotation
        JOINT lFoot
        {
          OFFSET -0.73152 -45.1104 -5.12064
          CHANNELS 3 Zrotation Xrotation Yrotation
          End Site
          {
            OFFSET 1.1221 -3.69964 12.103
          }
        }
      }
    }
  }
}
MOTION
Frames:	4
Frame Time:	0.03333
-0.06896740825738062 35.40461682693584 0.0694438006117758 -3.159534454345703 7.113430023193359 4.735921859741211 -2.2242066860198975 14.82176399230957 3.843762159347534 2.705929756164551 -9.701587677001953 1.2108497619628906 -4.923051357269287 15.507784843444824 -3.418501377105713 9.054620742797852 -26.344453811645508 -4.998126029968262 -0.009817765094339848 -0.01584094762802124 -0.021126065403223038 -0.010255697183310986 -0.023752721026539803 -0.01835506223142147 -0.0028499118052423 0.01751720905303955 -0.030111340805888176 46.52839660644531 36.04315948486328 17.543203353881836 -28.079153060913086 -32.27573776245117 62.88522720336914 -1.6107141971588135 -10.947088241577148 -1.6601136922836304 0.014834384433925152 0.00017666953499428928 -0.0017343498766422272 -0.026151424273848534 0.016269691288471222 -0.04540213942527771 -0.02125110663473606 0.0031846161000430584 0.006670160684734583 7.7206711769104 5.480623245239258 0.41715338826179504 -0.009428843855857849 -0.01254261378198862 0.016359172761440277 2.9019360542297363 0.9801802039146423 0.09394396096467972 0.02225339412689209 0.013472157530486584 -0.0025724712759256363 10.264130592346191 0.7340013980865479 0.03485889732837677 0.011830325238406658 -0.01757950335741043 0.003842601552605629 2.2210254669189453 -0.7439934015274048 -0.21787606179714203 -0.011512533761560917 0.006190994288772345 -0.0206973385065794 -52.087989807128906 39.607120513916016 -29.72478675842285 27.499494552612305 -30.51445960998535 -58.869869232177734 1.9965420961380005 -14.006845474243164 1.9573127031326294 0.013046134263277054 0.011537542566657066 0.018594417721033096 -0.0007972256862558424 -0.0039896112866699696 0.016374442726373672 -0.0005282689235173166 -0.01783658191561699 -0.012179218232631683 -7.72365665435791 5.480389595031738 -0.4219718277454376 0.002880084328353405 -0.05450453981757164 -0.01782325468957424 -2.9023611545562744 0.973380446434021 -0.0988425612449646 -0.013788062147796154 0.019994178786873817 -0.007098414469510317 -10.292966842651367 0.7312554121017456 -0.05158969387412071 0.03502430394291878 0.017186764627695084 0.0016887516248971224 -2.237334728240967 -0.742722749710083 0.19458957016468048 -0.025777611881494522 0.02259611338376999 0.03856546804308891 -27.604625701904297 -38.70989990234375 -23.435169219970703 -1.6920627355575562 65.0527572631836 2.7792768478393555 -4.812074661254883 -10.629145622253418 -10.381369590759277 0.012351897545158863 -0.011353101581335068 -0.014135202392935753 33.85891342163086 -37.7946662902832 26.787263870239258 1.8839409351348877 66.03010559082031 -2.9740397930145264 5.031165599822998 -10.533659934997559 13.731510162353516
-0.192465125857439 35.451096264237776 0.08486516713847454 -3.236067056655884 7.24376106262207 4.877259254455566 -2.1836459636688232 14.841248512268066 3.8147146701812744 2.7501745223999023 -9.721111297607422 1.1508604288101196 -4.899637699127197 15.51431941986084 -3.373269557952881 9.03917121887207 -26.33218765258789 -4.823332786560059 -0.05273973196744919 0.009930669330060482 -0.007512712385505438 -0.011918998323380947 -0.05559283494949341 -0.021805882453918457 0.020375553518533707 0.05372360721230507 -0.0399840772151947 46.631019592285156 36.43522262573242 17.441299438476562 -28.100421905517578 -32.51402282714844 63.14906311035156 -1.5763769149780273 -11.254753112792969 -1.7066950798034668 0.001752937096171081 -0.03230206295847893 -0.030258309096097946 -0.0023612144868820906 0.02460014633834362 -0.09662536531686783 -0.06644777953624725 0.007526799570769072 0.023837080225348473 7.727810382843018 5.488382816314697 0.4126475751399994 -0.034070637077093124 -0.022607427090406418 0.028100211173295975 2.885028600692749 0.9836747050285339 0.09837082028388977 0.05795950070023537 0.03002663142979145 -0.016314039006829262 10.279683113098145 0.7318698167800903 0.0746484026312828 0.024277104064822197 -0.04780865088105202 0.02775791473686695 2.242999315261841 -0.7526811957359314 -0.2157161831855774 -0.021153094246983528 0.0315532349050045 -0.050221726298332214 -51.706581115722656 39.56269454956055 -30.259309768676758 27.50657081604004 -30.52437400817871 -58.600765228271484 2.0215749740600586 -13.647503852844238 2.0129497051239014 0.022514143958687782 0.006160483695566654 0.027240624651312828 -0.0030769072473049164 -0.02478937990963459 0.02437746152281761 0.015929969027638435 -0.030333038419485092 -0.03181814029812813 -7.728317737579346 5.504047393798828 -0.44754108786582947 0.02285785600543022 -0.1421613097190857 -0.05304379761219025 -2.870220899581909 0.9867756366729736 -0.08718330413103104 -0.03233448043465614 0.03395575284957886 -0.033799804747104645 -10.297659873962402 0.7358646988868713 -0.07047323882579803 0.05435442924499512 0.03929775953292847 0.005430120509117842 -2.242872476577759 -0.7291724681854248 0.20445753633975983 -0.07451388239860535 0.030784811824560165 0.05481752008199692 -27.62095069885254 -38.53902816772461 -23.420866012573242 -1.7326643466949463 65.01737976074219 2.8140709400177 -4.806594371795654 -10.737117767333984 -10.53763484954834 0.006585473660379648 -0.02904398739337921 0.0028391622472554445 34.40508270263672 -38.06489181518555 27.279916763305664 1.8936309814453125 66.15898132324219 -2.950984477996826 4.950906276702881 -10.455077171325684 13.58464527130127
-0.4375600609209997 39.08281712896028 -0.026045872522999034 -41.334815979003906 69.68910217285156 -45.44069290161133 12.942909240722656 15.488821029663086 0.1588483601808548 4.840189456939697 -7.283766269683838 0.7898006439208984 -11.160093307495117 23.655271530151367 -20.579193115234375 18.248706817626953 -22.471263885498047 -37.3242073059082 -0.35310477018356323 -0.3525046408176422 -0.13934554159641266 -0.22188961505889893 -0.6501611471176147 0.04404570534825325 0.3992209732532501 0.11549150198698044 0.3659527003765106 53.00872039794922 -20.213857650756836 14.129995346069336 -26.919103622436523 -28.91547393798828 61.50630187988281 -3.184612989425659 -37.70745849609375 -7.010436534881592 -0.3783399760723114 0.06420786678791046 0.6067726016044617 -0.06038370355963707 -0.16843479871749878 -0.9561473727226257 -0.7196942567825317 -0.5171404480934143 -0.2632228136062622 8.18284797668457 5.622387886047363 0.29799404740333557 0.12722395360469818 0.007714600767940283 -0.399283230304718 3.1409456729888916 0.6670563220977783 0.004952937364578247 0.12537258863449097 0.36754730343818665 0.45142072439193726 10.680928230285645 0.8843950629234314 0.30587631464004517 -0.1096181869506836 -0.04349600896239281 -0.337882399559021 2.2786855697631836 -0.6596144437789917 0.13534468412399292 -0.19428522884845734 -0.1785086989402771 0.30119407176971436 -114.07962036132812 49.16024398803711 49.2384033203125 28.75453758239746 -39.63733673095703 -83.45922088623047 18.622861862182617 -70.29074096679688 25.238969802856445 -0.019374124705791473 -0.10586114972829819 -0.5874308943748474 0.09151918441057205 0.18443354964256287 0.08678212761878967 0.08005804568529129 -0.010569064877927303 -0.21311554312705994 -7.433098793029785 5.480503559112549 -0.7115402817726135 0.22787411510944366 -0.427602082490921 -0.03663460537791252 -2.869645357131958 1.0468088388442993 -0.11061614006757736 0.04727685824036598 0.026537759229540825 -0.019489241763949394 -10.478185653686523 0.5763225555419922 0.31392237544059753 -0.11830684542655945 0.34486231207847595 0.2021212875843048 -2.1726481914520264 -0.8084356784820557 -0.5573227405548096 0.004318285267800093 0.3188866972923279 -0.04355451464653015 -5.812119960784912 -2.4462599754333496 -11.336817741394043 0.11989130079746246 39.50346755981445 1.8758985996246338 -13.711838722229004 -24.2231388092041 -21.104339599609375 -0.3299383223056793 -0.22824735939502716 0.24970343708992004 90.22550201416016 -61.81281280517578 70.50545501708984 -2.0179386138916016 87.19710540771484 2.192516326904297 -4.407451152801514 -5.510268688201904 -16.09640121459961
-1.150436936435574 34.42779732278647 0.3381962431240128 -49.12572479248047 69.70625305175781 -37.17740249633789 11.01629638671875 9.344091415405273 -0.4325895607471466 6.334277153015137 -7.194177150726318 0.16603286564350128 -10.279054641723633 24.207393646240234 -18.85284996032715 18.11182975769043 -24.446325302124023 -35.00151062011719 -0.49178528785705566 -0.09403939545154572 -0.29816076159477234 0.339221328496933 -0.14839813113212585 0.2187921702861786 -0.025243617594242096 -0.11217477917671204 -0.03561972826719284 55.94580841064453 -24.284093856811523 16.19340705871582 -26.91202735900879 -26.34037208557129 60.100982666015625 -3.2459161281585693 -39.37627410888672 -6.571315288543701 -0.41952142119407654 0.3284054696559906 -0.3887455463409424 -0.11033151298761368 0.36529988050460815 -0.19935786724090576 -0.05743589624762535 0.38989052176475525 -0.4577341079711914 7.712087631225586 5.573825359344482 0.6253077387809753 0.4721328616142273 0.1222514808177948 0.009561894461512566 3.117349624633789 0.8624197840690613 0.009190316312015057 0.7484078407287598 0.5075903534889221 0.4036632180213928 9.77811050415039 0.786323606967926 -0.0779561921954155 -0.3775060176849365 -0.4699200391769409 0.269509494304657 2.2376270294189453 -0.9119011759757996 -0.16376642882823944 0.6642767786979675 -0.028601258993148804 0.1419866532087326 -116.44863891601562 43.90625762939453 54.42019271850586 27.34673309326172 -40.93825912475586 -84.70308685302734 17.964540481567383 -72.50342559814453 24.878751754760742 0.33249008655548096 -0.28828704357147217 0.12521688640117645 0.21229641139507294 0.05397768318653107 -0.008232911117374897 -0.05890040099620819 -0.08374767005443573 -0.3146265745162964 -7.485657215118408 5.325303554534912 -0.22982411086559296 -0.2402869164943695 -0.3339941203594208 0.15701012313365936 -3.1243677139282227 1.1251646280288696 0.18966218829154968 0.04284074530005455 0.14984677731990814 0.07462745159864426 -10.442020416259766 0.4993664026260376 0.11130107194185257 -0.20329827070236206 0.24465815722942352 0.035848964005708694 -2.0526087284088135 -0.7178418040275574 -0.20863033831119537 -0.1767033189535141 -0.10569299757480621 0.2870291769504547 -4.597776412963867 5.047735214233398 -12.411991119384766 0.01321522518992424 39.755313873291016 1.5891616344451904 -12.335607528686523 -25.9038143157959 -20.33492088317871 0.12388349324464798 -0.6782107353210449 -0.1130293533205986 82.24079895019531 -56.26223373413086 66.14544677734375 9.214469909667969 84.35377502441406 -10.038938522338867 -4.589330196380615 -11.778543472290039 -16.684646606445312
